<svg width="166" height="32" viewBox="0 0 166 32" fill="none" xmlns="http://www.w3.org/2000/svg">
<g clip-path="url(#clip0_17057_12991)">
<path fill-rule="evenodd" clip-rule="evenodd" d="M15.9749 0C20.2855 0 23.925 2.8783 25.0823 6.82084C29.0731 7.94499 31.9989 11.6173 31.9989 15.9741C31.9989 20.3155 29.0937 23.9773 25.1245 25.1154C23.9882 29.0911 20.3325 32.0009 15.9983 32.0009C11.6639 32.0009 8.00801 29.0907 6.87197 25.1147C2.90395 23.9758 0 20.3146 0 15.9741C0 11.6368 2.89958 7.9779 6.86302 6.8361C8.01536 2.88573 11.6587 0 15.9749 0Z" fill="#F7CFDB"/>
<path d="M18.7646 13.0927C18.7423 14.9244 15.8657 14.6761 14.9497 14.6649L14.9894 11.4235C15.9054 11.4347 18.7876 11.18 18.7646 13.0927ZM19.4566 18.1427C19.4333 20.1574 15.9865 19.8855 14.8847 19.8725L14.9405 16.302C16.0387 16.317 19.494 16.0417 19.4678 18.1457L19.4566 18.1427ZM21.8103 12.4073C21.6505 10.4817 19.9989 9.81993 17.9056 9.60736L17.9384 6.94059L16.3133 6.91955L16.2809 9.51737C15.856 9.51162 15.4197 9.51482 14.9862 9.51877L15.004 6.90804L13.3832 6.88214L13.3511 9.54611C12.9985 9.55072 12.653 9.55123 12.3174 9.54839L10.0789 9.51912L10.0582 11.2552C10.0582 11.2552 11.2615 11.2474 11.2344 11.2701C11.6887 11.2181 12.1009 11.5396 12.161 11.9929L12.1333 15.0214C12.1904 15.022 12.2475 15.0262 12.3041 15.0341L12.1331 15.0333L12.0715 19.2869C12.0449 19.6045 11.7669 19.8412 11.449 19.8168C11.4742 19.8235 10.27 19.8011 10.27 19.8011L9.92293 21.7351L12.0363 21.7608L13.1985 21.772L13.1674 24.4662L14.7897 24.4865L14.8131 21.8322C15.2442 21.8487 15.6775 21.8567 16.1088 21.8611L16.0754 24.5187L17.6977 24.539L17.7345 21.8463C20.4702 21.7235 22.3841 21.0592 22.6522 18.5005C22.8656 16.4377 21.9137 15.507 20.373 15.1151C21.3209 14.6484 21.9232 13.8129 21.7991 12.4043L21.8103 12.4073Z" fill="#DB6A93"/>
<path d="M103.509 22.2471H101.234V10.1225H103.292L103.534 11.9821C104.284 10.5936 105.784 9.77539 107.454 9.77539C110.576 9.77539 112.004 11.7342 112.004 14.8335V22.2471H109.729V15.3542C109.729 12.8995 108.616 11.9077 106.873 11.9077C104.744 11.9077 103.509 13.4698 103.509 15.8253V22.2471Z" fill="white"/>
<path d="M93.8263 22.5446C90.3413 22.5446 87.9453 19.966 87.9453 16.1972C87.9453 12.4036 90.2929 9.77539 93.7295 9.77539C97.0935 9.77539 99.2959 12.1557 99.2959 15.7509V16.6187L90.1477 16.6435C90.3171 19.1974 91.624 20.6107 93.8747 20.6107C95.6414 20.6107 96.8031 19.8668 97.1903 18.4783H99.3201C98.7393 21.0818 96.7547 22.5446 93.8263 22.5446ZM93.7295 11.7342C91.745 11.7342 90.4865 12.9491 90.1961 15.0814H97.0209C97.0209 13.0731 95.7382 11.7342 93.7295 11.7342Z" fill="white"/>
<path d="M79.557 22.5464C76.1204 22.5464 74.0391 19.9182 74.0391 16.2238C74.0391 12.5046 76.1446 9.77716 79.6538 9.77716C81.469 9.77716 82.9937 10.5954 83.7923 12.0831V4H86.0431V22.2489H84.0101L83.8165 20.0421C83.0421 21.7034 81.4448 22.5464 79.557 22.5464ZM80.0169 20.4389C82.3402 20.4389 83.7681 18.6784 83.7681 16.1494C83.7681 13.6699 82.3402 11.8847 80.0169 11.8847C77.6935 11.8847 76.3382 13.6699 76.3382 16.1494C76.3382 18.6536 77.6935 20.4389 80.0169 20.4389Z" fill="white"/>
<path d="M73.714 10.0257V12.1581H72.6975C70.5435 12.1581 69.2125 13.497 69.2125 15.8277V22.2495H66.9375V10.1497H69.0672L69.2125 11.9845C69.6965 10.72 70.8824 9.87695 72.5039 9.87695C72.9153 9.87695 73.2541 9.92654 73.714 10.0257Z" fill="white"/>
<path d="M58.0729 22.5446C55.5318 22.5446 54.0312 21.0818 54.0312 18.875C54.0312 16.6435 55.6528 15.255 58.436 15.0319L62.163 14.7343V14.3872C62.163 12.354 60.9771 11.635 59.3798 11.635C57.4679 11.635 56.3788 12.5028 56.3788 13.9657H54.3943C54.3943 11.4366 56.4272 9.77539 59.4766 9.77539C62.405 9.77539 64.3896 11.3623 64.3896 14.6351V22.2471H62.4534L62.2114 20.2883C61.6064 21.6768 59.9849 22.5446 58.0729 22.5446ZM58.7264 20.7346C60.8803 20.7346 62.1872 19.2965 62.1872 17.0154V16.3708L59.162 16.6187C57.1533 16.8171 56.3304 17.6105 56.3304 18.8006C56.3304 20.09 57.2501 20.7346 58.7264 20.7346Z" fill="white"/>
<path d="M40 15.8768C40 12.4552 42.1539 9.77734 45.5906 9.77734C47.5025 9.77734 48.9788 10.67 49.7291 12.1824L49.8985 10.1245H51.9314V21.7532C51.9314 25.5715 49.6323 28.0014 46.002 28.0014C42.7832 28.0014 40.5808 26.1418 40.1452 23.0673H42.4202C42.7106 24.8525 44.0175 25.8939 46.002 25.8939C48.2286 25.8939 49.6807 24.4062 49.6807 22.1003V19.6704C48.9062 21.0837 47.3573 21.9267 45.4938 21.9267C42.1297 21.9267 40 19.2737 40 15.8768ZM42.275 15.8272C42.275 18.1084 43.6545 19.8936 45.881 19.8936C48.1802 19.8936 49.5839 18.2075 49.5839 15.8272C49.5839 13.4965 48.2286 11.8105 45.9052 11.8105C43.6302 11.8105 42.275 13.5957 42.275 15.8272Z" fill="white"/>
<path d="M121.409 22.2947C117.947 22.2947 115.982 19.5935 115.982 16.1066C115.982 12.6197 117.947 9.91857 121.409 9.91857C123.496 9.91857 125.117 10.8517 125.976 12.767V4.27074H127.106V22H126.197L126.026 19.348C125.142 21.3616 123.447 22.2947 121.409 22.2947ZM121.532 21.2633C124.356 21.2633 125.952 19.1024 125.952 16.1066C125.952 13.1354 124.356 10.9499 121.532 10.9499C118.732 10.9499 117.136 13.1354 117.136 16.1066C117.136 19.1024 118.732 21.2633 121.532 21.2633ZM129.963 16.1066C129.963 12.546 132.443 9.91857 135.807 9.91857C139.171 9.91857 141.651 12.546 141.651 16.1066C141.651 19.6672 139.171 22.2947 135.807 22.2947C132.443 22.2947 129.963 19.6672 129.963 16.1066ZM131.117 16.1066C131.117 19.127 133.057 21.2633 135.807 21.2633C138.557 21.2633 140.497 19.127 140.497 16.1066C140.497 13.0863 138.557 10.9499 135.807 10.9499C133.057 10.9499 131.117 13.0863 131.117 16.1066ZM143.607 16.1557C143.607 12.4233 145.817 9.91857 149.206 9.91857C151.735 9.91857 153.626 11.4165 154.166 13.651H153.012C152.521 11.9076 150.95 10.9254 149.206 10.9254C146.579 10.9254 144.712 12.9389 144.712 16.1312C144.712 19.1761 146.431 21.2633 149.059 21.2633C150.95 21.2633 152.521 20.1829 153.061 18.5867H154.216C153.577 20.8213 151.564 22.2947 149.059 22.2947C145.817 22.2947 143.607 19.8391 143.607 16.1557ZM155.881 18.8078H156.986C156.986 20.3302 158.116 21.2633 159.933 21.2633C161.922 21.2633 163.15 20.3793 163.15 18.9305C163.15 17.7764 162.585 17.1871 161.063 16.7942L159.074 16.2785C157.06 15.7628 156.102 14.6333 156.102 13.1845C156.102 11.22 157.723 9.91857 160.154 9.91857C162.585 9.91857 164.107 11.22 164.181 13.3564H163.076C163.002 11.8339 161.922 10.9499 160.154 10.9499C158.263 10.9499 157.232 11.7357 157.232 13.1845C157.232 14.1913 157.919 14.9034 159.344 15.2717L161.308 15.7874C163.371 16.3276 164.279 17.2853 164.279 18.9305C164.279 20.9441 162.56 22.2947 159.982 22.2947C157.477 22.2947 155.881 20.9441 155.881 18.8078Z" fill="white"/>
</g>
<defs>
<clipPath id="clip0_17057_12991">
<rect width="166" height="32" fill="white"/>
</clipPath>
</defs>
</svg>