<?xml version="1.0" encoding="utf-8"?>
<svg xmlns="http://www.w3.org/2000/svg" width="20" height="20" viewBox="0 0 20 20" fill="none">
<circle cx="10" cy="10" r="10" fill="#F47226"/>
<path d="M13.391 12.1747V11.3489C13.8992 11.1746 14.2694 10.6333 14.2694 9.99251C14.2694 9.35178 13.8992 8.80891 13.391 8.63611V7.81034C13.8696 7.64671 14.2266 7.15583 14.2661 6.5625H13.6838V6.81482C13.6838 7.00903 13.5654 7.1803 13.391 7.26594V7.14819C13.391 6.97539 13.2397 6.8347 13.0538 6.8347H13.0242C12.8383 6.8347 12.6869 6.97539 12.6869 7.14819V7.26594C12.5126 7.1803 12.3941 7.01056 12.3941 6.81482V6.5625H11.8119C11.8514 7.15583 12.2083 7.64671 12.6869 7.81034V8.63611C12.1803 8.80891 11.8086 9.35025 11.8086 9.99251C11.8086 10.6348 12.1787 11.1761 12.6869 11.3489V12.1747C12.2083 12.3383 11.8514 12.8292 11.8119 13.4225H12.3941V13.1702C12.3941 12.976 12.5126 12.8047 12.6869 12.7191V12.8368C12.6869 13.0097 12.8383 13.1503 13.0242 13.1503H13.0538C13.2397 13.1503 13.391 13.0097 13.391 12.8368V12.7191C13.5654 12.8047 13.6838 12.9745 13.6838 13.1702V13.4225H14.2661C14.2266 12.8292 13.8696 12.3383 13.391 12.1747ZM12.3941 10.3534V9.63009C12.3941 9.43588 12.5126 9.26461 12.6869 9.17897V9.29672C12.6869 9.46953 12.8383 9.61021 13.0242 9.61021H13.0538C13.2397 9.61021 13.391 9.46953 13.391 9.29672V9.17897C13.5654 9.26461 13.6838 9.43435 13.6838 9.63009V10.3534C13.6838 10.5476 13.5654 10.7189 13.391 10.8045V10.6868C13.391 10.514 13.2397 10.3733 13.0538 10.3733H13.0242C12.8383 10.3733 12.6869 10.514 12.6869 10.6868V10.8045C12.5143 10.7189 12.3941 10.5491 12.3941 10.3534Z" fill="black"/>
<path d="M16.9635 10.4314V9.5521C17.4718 9.37777 17.8419 8.83643 17.8419 8.19569C17.8419 7.55496 17.4718 7.01209 16.9635 6.83929V6.5625H16.2612V6.83929C15.7529 7.01362 15.3828 7.55496 15.3828 8.19569C15.3828 8.83643 15.7529 9.3793 16.2612 9.5521V10.4314C15.7529 10.6057 15.3828 11.1471 15.3828 11.7878C15.3828 12.4285 15.7529 12.9714 16.2612 13.1442V13.421H16.9635V13.1442C17.4718 12.9699 17.8419 12.4285 17.8419 11.7878C17.8419 11.1471 17.4718 10.6057 16.9635 10.4314ZM15.9667 8.55658V7.83327C15.9667 7.63906 16.0852 7.46779 16.2595 7.38215V7.4999C16.2595 7.67271 16.4109 7.81339 16.5967 7.81339H16.6247C16.8106 7.81339 16.9619 7.67271 16.9619 7.4999V7.38215C17.1363 7.46779 17.2547 7.63753 17.2547 7.83327V8.55658C17.2547 8.75079 17.1363 8.92207 16.9619 9.0077V8.88995C16.9619 8.71715 16.8106 8.57646 16.6247 8.57646H16.5951C16.4092 8.57646 16.2579 8.71715 16.2579 8.88995V9.0077C16.0868 8.92207 15.9667 8.75232 15.9667 8.55658ZM17.2563 12.1502C17.2563 12.3444 17.1379 12.5157 16.9635 12.6013V12.4285C16.9635 12.2557 16.8122 12.1151 16.6264 12.1151H16.5984C16.4125 12.1151 16.2612 12.2557 16.2612 12.4285V12.6013C16.0868 12.5157 15.9684 12.346 15.9684 12.1502V11.4269C15.9684 11.2327 16.0868 11.0614 16.2612 10.9758V11.0385C16.2612 11.2113 16.4125 11.352 16.5984 11.352H16.628C16.8139 11.352 16.9652 11.2113 16.9652 11.0385V10.9758C17.1396 11.0614 17.258 11.2312 17.258 11.4269V12.1502H17.2563Z" fill="black"/>
<path d="M9.36753 9.29221C9.36095 9.25704 9.35272 9.2234 9.33956 9.19128C9.34449 9.18364 10.4367 7.76912 9.42511 6.89441C8.41513 6.0197 7.23571 7.1605 7.22914 7.16661C7.04161 7.11156 6.85245 7.07792 6.66493 7.06262C6.66493 7.06262 6.66493 7.06262 6.66329 7.06262C6.27838 7.00299 5.73885 7.06262 5.73885 7.06262C5.55298 7.07792 5.36546 7.11156 5.17958 7.16508C5.173 7.15896 3.9936 6.01818 2.98364 6.89288C1.97366 7.76759 3.06423 9.18364 3.06917 9.18976C3.05766 9.2234 3.04779 9.25704 3.0412 9.29068C2.93264 9.89625 2.1875 10.0828 2.1875 11.138C2.1875 12.213 2.96554 13.0602 4.55452 13.0602H5.2059C5.20919 13.0632 5.46086 13.3966 5.98065 13.4165C5.98065 13.4165 6.10073 13.4287 6.37707 13.4195C6.92812 13.4195 7.19624 13.0663 7.19788 13.0617H7.84926C9.43822 13.0617 10.2163 12.2145 10.2163 11.1395C10.2212 10.0859 9.47606 9.89778 9.36753 9.29221Z" fill="black"/>
</svg>