<?xml version="1.0" encoding="utf-8"?>
<svg xmlns="http://www.w3.org/2000/svg" width="20" height="20" viewBox="0 0 20 20" fill="none">
<path d="M9.99969 19.9995C15.5225 19.9995 19.9994 15.5226 19.9994 9.99976C19.9994 4.47692 15.5225 6.10352e-05 9.99969 6.10352e-05C4.47686 6.10352e-05 0 4.47692 0 9.99976C0 15.5226 4.47686 19.9995 9.99969 19.9995Z" fill="#ECECEC"/>
<circle cx="10" cy="10" r="10" fill="#F7931A"/>
<path d="M12.1154 8.57283C11.7999 9.80896 9.89365 9.1692 9.27554 9.01141L9.83393 6.82401C10.452 6.9818 12.4446 7.28205 12.1154 8.57283ZM11.7556 12.1043C11.4095 13.4641 9.12116 12.7148 8.37762 12.5254L9.00085 10.1179C9.74165 10.3082 12.1255 10.6884 11.7627 12.1082L11.7556 12.1043ZM14.2891 8.60841C14.4968 7.27892 13.4874 6.56018 12.1055 6.07304L12.565 4.2735L11.4686 3.99277L11.0207 5.74572C10.734 5.67215 10.4382 5.60277 10.1441 5.53436L10.5843 3.77028L9.49154 3.48697L9.03298 5.28474C8.79357 5.23004 8.55965 5.17373 8.33297 5.11677L6.82267 4.72988L6.52396 5.90153C6.52396 5.90153 7.33973 6.09353 7.31764 6.10449C7.63363 6.14376 7.85989 6.42897 7.82623 6.74558L7.31089 8.7908C7.34946 8.8006 7.38737 8.81283 7.42439 8.82742L7.3088 8.79886L6.56959 11.6677C6.49946 11.8783 6.27252 11.9929 6.06139 11.9242C6.07735 11.9329 5.26593 11.7203 5.26593 11.7203L4.71393 12.9723L6.14007 13.3363L6.92488 13.5345L6.46197 15.3529L7.55665 15.6326L8.00779 13.84C8.29685 13.9218 8.58882 13.9983 8.87998 14.072L8.42158 15.8653L9.51626 16.145L9.98272 14.3286C11.8545 14.6941 13.2588 14.5583 13.8598 12.8705C14.3425 11.5093 13.8509 10.7233 12.8723 10.2054C13.5904 10.045 14.1351 9.57824 14.2821 8.60454L14.2891 8.60841Z" fill="white"/>
</svg>