<?xml version="1.0" encoding="utf-8"?>
<svg xmlns="http://www.w3.org/2000/svg" width="320" height="320" viewBox="0 0 320 320" fill="none">
<path fill-rule="evenodd" clip-rule="evenodd" d="M159.731 0C202.833 0 239.224 28.7782 250.8 68.1985C290.726 79.4277 320 116.16 320 159.741C320 203.157 290.947 239.775 251.252 251.154C239.888 290.908 203.334 320.003 159.995 320.003C116.656 320.003 80.1005 290.907 68.7374 251.151C29.0483 239.769 -1.89444e-06 203.153 0 159.74C1.89248e-06 116.373 28.9883 79.7877 68.6144 68.3653C80.1358 28.8594 116.569 0 159.731 0Z" fill="#F7CFDB"/>
<path d="M188.161 133.029C187.939 151.308 159.231 148.83 150.089 148.718L150.484 116.371C159.626 116.483 188.39 113.942 188.161 133.029ZM195.069 183.424C194.837 203.529 160.438 200.814 149.443 200.685L149.998 165.054C160.958 165.204 195.442 162.458 195.181 183.454L195.069 183.424ZM218.557 126.19C216.962 106.975 200.479 100.37 179.587 98.2484L179.914 71.6365L163.696 71.426L163.374 97.3499C159.133 97.2924 154.779 97.3243 150.452 97.3636L150.629 71.3109L134.454 71.0519L134.134 97.6359C130.615 97.6818 127.167 97.6868 123.818 97.6584L101.478 97.3657L101.271 114.691C101.271 114.691 113.281 114.612 113.01 114.839C117.544 114.32 121.658 117.529 122.257 122.052L121.982 152.274C122.553 152.28 123.122 152.322 123.687 152.401L121.98 152.393L121.367 194.84C121.101 198.01 118.327 200.371 115.155 200.127C115.406 200.195 103.388 199.971 103.388 199.971L99.925 219.27L121.016 219.527L132.615 219.639L132.305 246.525L148.495 246.728L148.729 220.241C153.031 220.405 157.355 220.485 161.659 220.529L161.327 247.05L177.517 247.253L177.883 220.382C205.186 219.157 224.286 212.529 226.961 186.996C229.09 166.41 219.59 157.122 204.213 153.212C213.673 148.555 219.684 140.217 218.445 126.161L218.557 126.19Z" fill="#E36492"/>
</svg>