<?xml version="1.0" encoding="UTF-8"?>
<svg xmlns:xodm="http://www.corel.com/coreldraw/odm/2003" xmlns="http://www.w3.org/2000/svg" xmlns:xlink="http://www.w3.org/1999/xlink" version="1.1" id="Layer_1" x="0px" y="0px" viewBox="0 0 2500 2500" style="enable-background:new 0 0 2500 2500;" xml:space="preserve">
<style type="text/css">
	.st0{fill-rule:evenodd;clip-rule:evenodd;fill:#FFFFFF;}
	.st1{fill-rule:evenodd;clip-rule:evenodd;fill:#5A5564;}
	.st2{fill-rule:evenodd;clip-rule:evenodd;fill:#F09242;}
	.st3{fill-rule:evenodd;clip-rule:evenodd;fill:#282138;}
</style>
<g id="Layer_x0020_1">
	<g id="_1353706316224">
		<g id="Designs">
			<g id="Dashboard---Order-Book---Collapsed">
				<g id="Group-20">
					<g id="Group-6">
						<g id="Totals:-Network">
							<g id="icon-wbtc">
								<path id="Fill-1" class="st0" d="M1250,0c690.2,0,1250,559.6,1250,1250c0,690.2-559.8,1250-1250,1250          C559.6,2500,0,1940.3,0,1250C0,559.6,559.6,0,1250,0L1250,0z"></path>
								<path id="Fill-3" class="st1" d="M2038.5,524.7l-68.6,68.6c339.5,371.4,339.5,940.3,0,1311.6l68.6,68.6          c377.7-409.8,377.7-1040.7,0-1450.5V524.7L2038.5,524.7z"></path>
								<path id="Fill-5" class="st1" d="M594.7,530.7c371.2-339.5,940.3-339.5,1311.6,0l68.6-68.6C1565.2,84.2,934,84.2,524.4,462          L594.7,530.7L594.7,530.7z"></path>
								<path id="Fill-7" class="st1" d="M530.7,1905.5c-339.1-371.1-339.1-939.6,0-1310.9L462,526          C84.2,935.8,84.2,1566.8,462,1976.4L530.7,1905.5z"></path>
								<path id="Fill-9" class="st1" d="M1905.5,1968.9c-371.2,339.6-940.2,339.6-1311.5,0l-68.7,68.8          c409.7,377.7,1040.9,377.7,1450.5,0L1905.5,1968.9z"></path>
								<g>
									<path id="Fill-11" class="st2" d="M1458,1075.2c0,137.2-214.6,120.6-282.9,120.6V954C1243.4,954,1458,932.5,1458,1075.2           L1458,1075.2z M1514,1450.7c0,150-257.1,132.9-339.1,132.9v-266.2C1256.9,1317.4,1514,1294,1514,1450.7L1514,1450.7z            M1683.4,1021c-13.7-143.3-137.2-191.3-293.6-206V617.6H1269v193.6c-31.9,0-64.3,0-96.6,1V617.6h-120.1v198.6h-76.9H807.5           v129.3c0,0,89.2-1.6,87.9,0c33.4-3.6,63.7,19.9,68.6,53.1v543.9c-0.8,11.4-6,22-14.5,29.6c-8.6,7.4-19.9,11.1-31.2,10.5           c1.5,1.2-87.9,0-87.9,0l-24,144.2h157.4h86.5v201.9h120.9v-198.9h96.5v197.9h121v-199.4c204.1-12.5,346.5-62.7,364.3-253.9           c14.5-153.7-57.9-222.4-173.4-250.1C1649.8,1188.7,1693.9,1125.7,1683.4,1021z"></path>
								</g>
								<g id="Fill-13">
									<path class="st3" d="M1249.8,97.5C613.7,97.9,98.5,613.6,98.6,1249.6c0.1,636,515.7,1151.5,1151.8,1151.5           c636,0.1,1151.8-515.4,1152-1151.4c-0.9-636-516.5-1151.4-1152.6-1151.6L1249.8,97.5L1249.8,97.5z M1249.8,2500           C559.5,2499.9-0.1,1940.2,0,1250C0,559.6,559.6,0.1,1249.9,0c690.2,0,1250,559.5,1250.1,1249.8           C2499.2,1940,1939.9,2499.2,1249.8,2500z"></path>
								</g>
							</g>
						</g>
					</g>
				</g>
			</g>
		</g>
	</g>
</g>
</svg>
